<?xml version="1.0" encoding="UTF-8" standalone="no"?>
<!DOCTYPE svg PUBLIC "-//W3C//DTD SVG 1.1//EN" "http://www.w3.org/Graphics/SVG/1.1/DTD/svg11.dtd">
<svg width="100%" height="100%" viewBox="0 0 2048 446" version="1.1" xmlns="http://www.w3.org/2000/svg" xmlns:xlink="http://www.w3.org/1999/xlink" xml:space="preserve" xmlns:serif="http://www.serif.com/" style="fill-rule:evenodd;clip-rule:evenodd;stroke-linejoin:round;stroke-miterlimit:2;">
    <g id="Tavola-da-disegno1" serif:id="Tavola da disegno1" transform="matrix(1,0,0,0.290365,0,0)">
        <rect x="0" y="0" width="2048" height="1536" style="fill:none;"/>
        <g transform="matrix(2.10194,0,0,7.23896,-1066.67,-3779.83)">
            <path d="M1031.3,687.728L1031.3,613.333L1007.67,613.333L1007.67,582.312L1031.3,582.312L1031.3,544.309L1071.05,544.309L1071.05,582.312L1099.92,582.312L1099.92,613.333L1071.05,613.333L1071.05,682.222C1071.05,686.967 1072.04,690.302 1074.01,692.227C1075.97,694.151 1079.6,695.114 1084.88,695.114C1086.94,695.114 1089.49,695.091 1092.54,695.047C1095.58,695.002 1097.91,694.935 1099.52,694.845L1100.73,725.731C1097.95,726 1094.39,726.179 1090.05,726.269C1085.71,726.358 1081.39,726.403 1077.09,726.403C1061.61,726.403 1050.1,723.225 1042.58,716.868C1035.06,710.512 1031.3,700.799 1031.3,687.728ZM1064.05,655L1038.3,655L1038.3,687.728C1038.3,698.34 1041,706.362 1047.1,711.522C1053.61,717.028 1063.68,719.403 1077.09,719.403C1081.34,719.403 1085.62,719.359 1089.91,719.27C1091.16,719.244 1092.35,719.211 1093.47,719.17C1093.47,719.17 1092.8,702.044 1092.8,702.044L1092.64,702.046C1089.56,702.091 1086.97,702.114 1084.88,702.114C1077.13,702.114 1072,700.056 1069.11,697.233C1066.12,694.31 1064.05,689.428 1064.05,682.222L1064.05,655Z"/>
            <path d="M672.458,648C674.646,653.748 675.74,660.187 675.74,667.316C675.74,680.029 672.561,691.018 666.205,700.284C659.849,709.55 650.784,716.667 639.012,721.636C627.239,726.604 613.162,729.089 596.778,729.089C579.948,729.089 565.512,726.448 553.471,721.166C541.43,715.884 532.186,708.162 525.74,698.001C519.294,687.84 516.027,675.553 515.937,661.139L555.821,661.139C556,668.301 557.79,674.411 561.192,679.469C564.594,684.527 569.339,688.399 575.427,691.085C581.514,693.771 588.676,695.114 596.913,695.114C604.522,695.114 611.147,694.04 616.787,691.891C622.427,689.742 626.814,686.743 629.948,682.894C633.081,679.044 634.648,674.568 634.648,669.465C634.648,665.078 633.394,661.296 630.888,658.118C628.381,654.939 624.509,652.187 619.272,649.859C617.84,649.223 616.296,648.603 614.64,648C610.239,646.398 605.046,644.913 599.061,643.547L577.844,638.847C558.686,634.55 544.272,627.836 534.603,618.704C524.935,609.573 520.1,597.845 520.1,583.521C520.1,571.345 523.278,560.714 529.635,551.627C535.991,542.541 544.876,535.468 556.291,530.41C567.705,525.352 580.888,522.823 595.838,522.823C611.147,522.823 624.375,525.397 635.52,530.544C646.666,535.692 655.328,543.011 661.505,552.5C667.682,561.99 670.95,573.27 671.308,586.341L632.499,586.341C631.783,577.12 628.179,569.913 621.689,564.721C615.198,559.528 606.626,556.932 595.973,556.932C589.169,556.932 583.171,557.961 577.978,560.02C572.786,562.08 568.757,564.944 565.892,568.615C563.027,572.285 561.595,576.538 561.595,581.372C561.595,585.669 562.826,589.34 565.288,592.384C567.75,595.428 571.51,598.046 576.568,600.24C581.626,602.433 587.96,604.38 595.57,606.081L614.504,610.378C624.621,612.527 633.506,615.257 641.161,618.57C648.815,621.882 655.216,625.866 660.364,630.521C665.511,635.177 669.361,640.548 671.912,646.636C672.101,647.086 672.283,647.541 672.458,648ZM637.287,655C640.163,659.134 641.648,663.945 641.648,669.465C641.648,676.25 639.543,682.194 635.376,687.313C631.531,692.037 626.201,695.795 619.279,698.432C612.93,700.851 605.48,702.114 596.913,702.114C587.589,702.114 579.493,700.53 572.601,697.49C565.224,694.235 559.506,689.505 555.384,683.376C552.411,678.956 550.413,673.884 549.457,668.139C549.457,668.139 523.271,668.139 523.271,668.139C524.178,678.107 526.937,686.82 531.651,694.251C537.369,703.264 545.603,710.07 556.283,714.755C567.538,719.693 581.046,722.089 596.778,722.089C612.101,722.089 625.28,719.834 636.29,715.187C646.722,710.784 654.8,704.535 660.433,696.324C666.021,688.177 668.74,678.493 668.74,667.316C668.74,662.909 668.277,658.802 667.326,655L637.287,655Z"/>
            <path d="M794.45,726L794.45,642.876C794.45,633.476 792.145,626.247 787.534,621.188C782.924,616.13 776.455,613.601 768.13,613.601C762.579,613.601 757.7,614.765 753.492,617.093C749.284,619.42 745.972,622.912 743.555,627.567C741.138,632.222 739.929,638.176 739.929,645.427L739.929,726L700.314,726L700.314,525.911L739.795,525.911L739.795,605.223C743.298,599.23 747.461,594.19 752.284,590.101C760.52,583.118 771.039,579.626 783.841,579.626C794.047,579.626 802.91,581.82 810.43,586.207C817.95,590.593 823.769,596.972 827.888,605.343C832.006,613.713 834.065,623.852 834.065,635.759L834.065,726L794.45,726ZM827.065,655L801.45,655C801.45,655 801.45,719 801.45,719L827.065,719L827.065,655ZM732.929,655L707.314,655C707.314,655 707.314,719 707.314,719L732.929,719L732.929,655Z"/>
            <path d="M850.608,726L850.608,582.312L890.223,582.312L890.223,726L850.608,726ZM883.223,655L857.608,655C857.608,655 857.608,719 857.608,719L883.223,719L883.223,655Z"/>
            <path d="M931.329,726L931.329,613.333L905.412,613.333L905.412,582.312L931.329,582.312L931.329,565.392C931.329,556.171 933.12,548.494 936.701,542.362C940.282,536.229 945.564,531.596 952.547,528.463C959.53,525.329 967.99,523.763 977.927,523.763C983.03,523.763 987.82,523.875 992.296,524.099C996.772,524.322 999.95,524.524 1001.83,524.703L1000.22,555.723C998.965,555.544 996.951,555.41 994.176,555.32C991.401,555.231 988.939,555.186 986.79,555.186C981.06,555.186 976.987,556.439 974.57,558.946C972.153,561.453 970.944,565.437 970.944,570.898L970.944,582.312L1000.49,582.312L1000.49,613.333L970.944,613.333L970.944,726L931.329,726ZM963.944,655L938.329,655C938.329,655 938.329,719 938.329,719L963.944,719L963.944,655Z"/>
            <path d="M870.348,564.183C863.903,564.183 858.553,562.169 854.301,558.14C850.049,554.112 847.922,549.098 847.922,543.1C847.922,537.102 850.049,532.111 854.301,528.127C858.553,524.143 863.903,522.151 870.348,522.151C876.794,522.151 882.166,524.143 886.463,528.127C890.76,532.111 892.909,537.102 892.909,543.1C892.909,549.098 890.76,554.112 886.463,558.14C882.166,562.169 876.794,564.183 870.348,564.183Z"/>
            <g transform="matrix(1,0,0,1,4,0)">
                <path d="M1129.63,613.333L1103.71,613.333L1103.71,582.312L1129.63,582.312L1129.63,565.392C1129.63,556.171 1131.42,548.494 1135,542.362C1138.58,536.229 1143.87,531.596 1150.85,528.463C1157.83,525.329 1166.29,523.763 1176.23,523.763C1181.33,523.763 1186.12,523.875 1190.6,524.099C1195.08,524.322 1198.25,524.524 1200.13,524.703L1198.52,555.723C1197.27,555.544 1195.25,555.41 1192.48,555.32C1189.7,555.231 1187.24,555.186 1185.09,555.186C1179.36,555.186 1175.29,556.439 1172.87,558.946C1170.45,561.453 1169.25,565.437 1169.25,570.898L1169.25,582.312L1198.79,582.312L1198.79,613.333L1169.25,613.333L1169.25,726L1129.63,726L1129.63,613.333Z"/>
            </g>
            <path d="M1220.28,726L1220.28,582.312L1259.89,582.312L1259.89,726L1220.28,726ZM1240.02,564.183C1233.57,564.183 1228.22,562.169 1223.97,558.14C1219.72,554.112 1217.59,549.098 1217.59,543.1C1217.59,537.102 1219.72,532.111 1223.97,528.127C1228.22,524.143 1233.57,522.151 1240.02,522.151C1246.46,522.151 1251.83,524.143 1256.13,528.127C1260.43,532.111 1262.58,537.102 1262.58,543.1C1262.58,549.098 1260.43,554.112 1256.13,558.14C1251.83,562.169 1246.46,564.183 1240.02,564.183Z" style="fill-rule:nonzero;"/>
            <g transform="matrix(1,0,0,1,-11,0)">
                <rect x="1289.43" y="525.911" width="39.615" height="200.089" style="fill-rule:nonzero;"/>
            </g>
            <g transform="matrix(1,0,0,1,-19,0)">
                <path d="M1391.12,664.228C1391.34,670.99 1392.67,676.899 1395.12,681.954C1397.8,687.504 1401.7,691.779 1406.8,694.778C1411.9,697.777 1417.99,699.277 1425.07,699.277C1430.08,699.277 1434.58,698.561 1438.56,697.128C1442.55,695.696 1445.9,693.614 1448.63,690.884C1451.36,688.153 1453.36,684.953 1454.61,681.282L1490.73,682.894C1488.85,692.025 1484.82,700.06 1478.65,706.998C1472.47,713.936 1464.68,719.375 1455.28,723.314C1445.88,727.253 1435.45,729.223 1423.99,729.223C1409.4,729.223 1396.73,726.045 1385.99,719.688C1375.24,713.332 1366.94,704.536 1361.08,693.301C1355.21,682.066 1352.28,669.107 1352.28,654.425C1352.28,639.743 1355.26,626.761 1361.21,615.481C1367.16,604.201 1375.4,595.36 1385.92,588.959C1396.44,582.558 1408.64,579.358 1422.51,579.358C1432.81,579.358 1442.21,581.104 1450.71,584.595C1459.22,588.087 1466.58,593.078 1472.8,599.568C1479.03,606.059 1483.84,613.847 1487.24,622.934C1490.64,632.021 1492.34,642.204 1492.34,653.485L1492.34,664.228L1391.12,664.228ZM1391.39,638.982L1454.82,638.982C1454.29,634.214 1453.12,629.961 1451.32,626.224C1448.77,620.942 1445.12,616.847 1440.37,613.937C1435.63,611.027 1429.9,609.573 1423.18,609.573C1416.56,609.573 1410.85,611.027 1406.06,613.937C1401.27,616.847 1397.58,620.92 1394.98,626.157C1393.11,629.932 1391.92,634.207 1391.39,638.982Z"/>
            </g>
        </g>
    </g>
</svg>

